<?xml version="1.0" standalone="no"?>
<!DOCTYPE svg PUBLIC "-//W3C//DTD SVG 20010904//EN"
 "http://www.w3.org/TR/2001/REC-SVG-20010904/DTD/svg10.dtd">
<svg version="1.0" xmlns="http://www.w3.org/2000/svg"
 width="512.000000pt" height="512.000000pt" viewBox="0 0 512.000000 512.000000"
 preserveAspectRatio="xMidYMid meet">
<metadata>
Created by potrace 1.11, written by Peter Selinger 2001-2013
</metadata>
<g transform="translate(0.000000,512.000000) scale(0.100000,-0.100000)"
fill="#000000" stroke="none">
<path d="M0 2560 l0 -2560 2560 0 2560 0 0 2560 0 2560 -2560 0 -2560 0 0
-2560z m3066 1839 c370 -51 675 -272 852 -616 225 -438 231 -1073 15 -1508
-194 -389 -533 -622 -968 -666 -260 -27 -533 45 -725 190 l-65 49 -3 -599 -2
-599 -370 2 -371 3 0 1490 c-1 820 -4 1501 -8 1515 -7 25 -7 25 -156 30 l-150
5 -3 328 -2 327 350 0 c282 0 365 -3 420 -16 115 -26 192 -92 221 -191 l12
-41 80 68 c90 77 236 158 342 189 161 48 365 63 531 40z"/>
<path d="M2650 3743 c-59 -10 -153 -47 -207 -82 -117 -76 -208 -213 -255 -386
-19 -69 -22 -107 -22 -275 0 -185 1 -199 27 -285 82 -264 246 -423 468 -454
297 -42 558 147 643 464 56 210 33 508 -54 690 -103 217 -288 338 -508 334
-37 -1 -78 -4 -92 -6z"/>
</g>
</svg>
